<svg width="397" height="418" viewBox="0 0 397 418" fill="none" xmlns="http://www.w3.org/2000/svg">
<path d="M396.323 196.076L198.162 0L0 196.076L12.7449 208.591L0 221.107L198.162 417.182L396.323 221.107L383.578 208.591L396.323 196.076ZM5.90313 196.076L198.162 5.84055L390.42 196.076L380.637 205.754L198.162 25.2187L15.6861 205.671L5.90313 196.076ZM377.675 208.591L198.162 386.144L18.6481 208.591L198.162 31.0384L377.675 208.591ZM390.42 221.107L198.162 411.342L5.90313 221.107L15.6861 211.428L198.162 391.964L380.637 211.511L390.42 221.107Z" fill="#EECB8C"/>
<path d="M167.975 266.957V257.37H161.98V273.354C193.948 273.354 220.134 247.38 220.134 215.22V137.49H230.124V131.496H214.14V215.22C214.14 222.405 212.737 228.995 210.144 235.2V131.496H204.15V245.786C202.939 247.572 201.556 249.186 200.154 250.781V131.496H184.17V137.49H194.16V256.179C186.763 261.962 177.772 265.766 167.975 266.957Z" fill="#EECB8C"/>
</svg>
