<?xml version="1.0" encoding="UTF-8" standalone="no" ?>
<!DOCTYPE svg PUBLIC "-//W3C//DTD SVG 1.1//EN" "http://www.w3.org/Graphics/SVG/1.1/DTD/svg11.dtd">
<svg xmlns="http://www.w3.org/2000/svg" xmlns:xlink="http://www.w3.org/1999/xlink" version="1.1" width="1280" height="1024" viewBox="0 0 1280 1024" xml:space="preserve">
<desc>Created with Fabric.js 5.3.0</desc>
<defs>
</defs>
<g transform="matrix(1 0 0 1 640 512)" id="background-logo"  >
<rect style="stroke: none; stroke-width: 0; stroke-dasharray: none; stroke-linecap: butt; stroke-dashoffset: 0; stroke-linejoin: miter; stroke-miterlimit: 4; fill: rgb(22,22,22); fill-rule: nonzero; opacity: 1;"  paint-order="stroke"  x="-640" y="-512" rx="0" ry="0" width="1280" height="1024" />
</g>
<g transform="matrix(2.117156992635368 0 0 2.117156992635368 640 432.99933432424876)" id="logo-logo"  >
<g style=""  paint-order="stroke"   >
		<g transform="matrix(0.9852420048470403 0 0 0.9852420048470404 0 0)"  >
<g style=""  paint-order="stroke"   >
		<g transform="matrix(1 0 0 1 0 0)"  >
<path style="stroke: none; stroke-width: 1; stroke-dasharray: none; stroke-linecap: butt; stroke-dashoffset: 0; stroke-linejoin: miter; stroke-miterlimit: 4; fill: rgb(238,203,140); fill-rule: nonzero; opacity: 1;"  paint-order="stroke"  transform=" translate(-95, -100)" d="M 190 94 L 95 0 L 0 94 L 6.11 100 L 0 106 L 95 200 L 190 106 L 183.89 100 Z M 2.83 94 L 95 2.8 L 187.17 94 L 182.48 98.64 L 95 12.09 L 7.52 98.6 Z M 181.06 100 L 95 185.12 L 8.94 100 L 95 14.88 Z M 187.17000000000002 106 L 95 197.2 L 2.83 106 L 7.5200000000000005 101.36 L 95 187.91 L 182.48000000000002 101.39999999999999 Z" stroke-linecap="round" />
</g>
</g>
</g>
</g>
</g>
<g transform="matrix(1.9211538461538462 0 0 1.9211538461538462 645.0579177884614 716.3201907587686)" id="text-logo"  >
<g style=""  paint-order="stroke"   >
		<g transform="matrix(1 0 0 1 0 0)" id="text-logo-path-0"  >
<path style="stroke: none; stroke-width: 0; stroke-dasharray: none; stroke-linecap: butt; stroke-dashoffset: 0; stroke-linejoin: miter; stroke-miterlimit: 4; fill: rgb(242,206,142); fill-rule: nonzero; opacity: 1;"  paint-order="stroke"  transform=" translate(-147.46, 14.35)" d="M 1.07 -0.9 L 1.07 -2.87 L -0.16 -2.87 L -0.16 0.41 C 6.4 0.41 11.77 -4.92 11.77 -11.52 L 11.77 -27.47 L 13.82 -27.47 L 13.82 -28.7 L 10.54 -28.7 L 10.54 -11.52 C 10.54 -10.04 10.25 -8.69 9.72 -7.42 L 9.72 -28.7 L 8.49 -28.7 L 8.49 -5.25 C 8.24 -4.88 7.95 -4.55 7.67 -4.22 L 7.67 -28.7 L 4.39 -28.7 L 4.39 -27.47 L 6.44 -27.47 L 6.44 -3.12 C 4.92 -1.93 3.08 -1.15 1.07 -0.9 Z M 34.23 -24.52 L 34.23 -6.03 L 33.41 -7.18 L 33.41 -23.57 C 31.37 -21.03 30.14 -17.84 30.14 -14.35 C 30.14 -6.23 36.78 0.41 44.9 0.41 C 53.01 0.41 59.66 -6.23 59.66 -14.35 C 59.66 -22.47 53.01 -29.11 44.9 -29.11 C 41.7 -29.11 38.7 -28.09 36.29 -26.32 L 36.29 -24.8 C 38.62 -26.73 41.62 -27.88 44.9 -27.88 C 52.36 -27.88 58.43 -21.81 58.43 -14.35 C 58.43 -6.89 52.36 -0.82 44.9 -0.82 C 41.25 -0.82 37.88 -2.3 35.47 -4.67 L 35.47 -25.71 C 35.01 -25.34 34.6 -24.93 34.23 -24.52 Z M 31.37 -14.35 C 31.37 -15.95 31.65 -17.51 32.19 -18.98 L 32.19 -9.72 C 31.65 -11.15 31.37 -12.71 31.37 -14.35 Z M 78.06 -27.47 L 78.06 -1.23 L 76.01 -1.23 L 76.01 0 L 79.29 0 L 79.29 -28.7 L 76.01 -28.7 L 76.01 -27.47 Z M 81.34 -28.7 L 80.11 -28.7 L 80.11 0 L 81.34 0 Z M 88.56 -28.7 L 82.16 -28.7 L 82.16 0 L 83.39 0 L 83.39 -0.08 L 94.46 -0.08 C 97.46 -0.08 99.84 -2.54 99.84 -5.45 C 99.84 -8.45 97.42 -10.87 94.46 -10.87 L 93.23 -10.87 C 96.15 -12.51 98.11 -15.66 98.11 -19.19 C 98.11 -24.48 93.81 -28.7 88.56 -28.7 Z M 88.56 -10.87 L 83.39 -10.87 L 83.39 -27.47 L 88.56 -27.47 C 93.15 -27.47 96.88 -23.78 96.88 -19.19 C 96.88 -14.64 93.15 -10.87 88.56 -10.87 Z M 94.46 -1.31 L 83.39 -1.31 L 83.39 -9.63 L 94.46 -9.63 C 96.76 -9.63 98.61 -7.79 98.61 -5.45 C 98.61 -3.2 96.76 -1.31 94.46 -1.31 Z M 120.54 -24.52 L 120.54 -6.03 L 119.72 -7.18 L 119.72 -23.57 C 117.67 -21.03 116.44 -17.84 116.44 -14.35 C 116.44 -6.23 123.08 0.41 131.2 0.41 C 139.32 0.41 145.96 -6.23 145.96 -14.35 C 145.96 -22.47 139.32 -29.11 131.2 -29.11 C 128 -29.11 125.01 -28.09 122.59 -26.32 L 122.59 -24.8 C 124.93 -26.73 127.92 -27.88 131.2 -27.88 C 138.66 -27.88 144.73 -21.81 144.73 -14.35 C 144.73 -6.89 138.66 -0.82 131.2 -0.82 C 127.55 -0.82 124.19 -2.3 121.77 -4.67 L 121.77 -25.71 C 121.32 -25.34 120.91 -24.93 120.54 -24.52 Z M 117.67 -14.35 C 117.67 -15.95 117.96 -17.51 118.49 -18.98 L 118.49 -9.72 C 117.96 -11.15 117.67 -12.71 117.67 -14.35 Z M 164.37 -27.47 L 164.37 -1.23 L 162.32 -1.23 L 162.32 0 L 165.6 0 L 165.6 -28.7 L 162.32 -28.7 L 162.32 -27.47 Z M 167.65 -28.7 L 166.42 -28.7 L 166.42 0 L 167.65 0 Z M 177.86 -28.7 L 168.47 -28.7 L 168.47 0 L 171.75 0 L 171.75 -1.23 L 169.7 -1.23 L 169.7 -9.63 L 178.47 -9.63 L 183.52 -1.23 L 182.2 -1.23 L 182.2 0 L 187.82 0 L 187.82 -1.23 L 185.03 -1.23 L 179.87 -9.84 C 184.17 -10.74 187.41 -14.6 187.41 -19.19 C 187.41 -24.44 183.15 -28.7 177.86 -28.7 Z M 177.86 -10.87 L 169.7 -10.87 L 169.7 -27.47 L 177.86 -27.47 C 182.45 -27.47 186.18 -23.74 186.18 -19.19 C 186.18 -14.6 182.45 -10.87 177.86 -10.87 Z M 206.44 -27.47 L 206.44 -1.23 L 204.38 -1.23 L 204.38 0 L 207.66 0 L 207.66 -28.7 L 204.38 -28.7 L 204.38 -27.47 Z M 209.72 -28.7 L 208.48 -28.7 L 208.48 0 L 209.72 0 Z M 216.93 -28.7 L 210.53 -28.7 L 210.53 0 L 211.76 0 L 211.76 -0.08 L 222.84 -0.08 C 225.83 -0.08 228.21 -2.54 228.21 -5.45 C 228.21 -8.45 225.79 -10.87 222.84 -10.87 L 221.6 -10.87 C 224.52 -12.51 226.48 -15.66 226.48 -19.19 C 226.48 -24.48 222.18 -28.7 216.93 -28.7 Z M 216.93 -10.87 L 211.76 -10.87 L 211.76 -27.47 L 216.93 -27.47 C 221.52 -27.47 225.25 -23.78 225.25 -19.19 C 225.25 -14.64 221.52 -10.87 216.93 -10.87 Z M 222.84 -1.31 L 211.76 -1.31 L 211.76 -9.63 L 222.84 -9.63 C 225.13 -9.63 226.98 -7.79 226.98 -5.45 C 226.98 -3.2 225.13 -1.31 222.84 -1.31 Z M 246.86 -27.47 L 246.86 -1.23 L 244.81 -1.23 L 244.81 0 L 248.09 0 L 248.09 -28.7 L 244.81 -28.7 L 244.81 -27.47 Z M 250.14 -28.7 L 248.91 -28.7 L 248.91 0 L 250.14 0 Z M 254.24 -28.7 L 250.96 -28.7 L 250.96 0 L 254.24 0 L 254.24 -1.23 L 252.19 -1.23 L 252.19 -27.47 L 254.24 -27.47 Z M 278.27 0 L 281.55 0 L 281.55 -28.7 L 270.89 -28.7 L 270.89 -25.42 L 272.12 -25.42 L 272.12 -27.47 L 280.32 -27.47 L 280.32 -1.23 L 278.27 -1.23 Z M 283.6 -28.7 L 282.37 -28.7 L 282.37 0 L 283.6 0 Z M 295.08 -28.7 L 284.42 -28.7 L 284.42 0 L 287.7 0 L 287.7 -1.23 L 285.65 -1.23 L 285.65 -27.47 L 293.85 -27.47 L 293.85 -25.42 L 295.08 -25.42 Z" stroke-linecap="round" />
</g>
</g>
</g>
<g transform="matrix(1.9211538461538462 0 0 1.9211538461538462 637.8905316194723 426.83350632424873)" id="tagline-1e6586f8-d0fe-40a7-88e9-d3bbc2eb41fd-logo"  >
<g style=""  paint-order="stroke"   >
		<g transform="matrix(1 0 0 1 0 0)" id="tagline-1e6586f8-d0fe-40a7-88e9-d3bbc2eb41fd-logo-path-0"  >
<path style="stroke: none; stroke-width: 0; stroke-dasharray: none; stroke-linecap: butt; stroke-dashoffset: 0; stroke-linejoin: miter; stroke-miterlimit: 4; fill: rgb(238,203,140); fill-rule: nonzero; opacity: 1;"  paint-order="stroke"  transform=" translate(-17.314999999999998, 35.879999999999995)" d="M 2.7 -2.29 L 2.7 -7.28 L -0.42 -7.28 L -0.42 1.04 C 16.22 1.04 29.85 -12.48 29.85 -29.22 L 29.85 -69.68 L 35.05 -69.68 L 35.05 -72.8 L 26.73 -72.8 L 26.73 -29.22 C 26.73 -25.48 26 -22.05 24.65 -18.82 L 24.65 -72.8 L 21.53 -72.8 L 21.53 -13.31 C 20.9 -12.38 20.18 -11.54 19.45 -10.71 L 19.45 -72.8 L 11.13 -72.8 L 11.13 -69.68 L 16.33 -69.68 L 16.33 -7.9 C 12.48 -4.89 7.8 -2.91 2.7 -2.29 Z" stroke-linecap="round" />
</g>
</g>
</g>
</svg>