<svg width="568" height="521" viewBox="0 0 568 521" fill="none" xmlns="http://www.w3.org/2000/svg">
<g clip-path="url(#clip0_11_43)">
<path d="M2.8202 518.16V514.375H0.457184V520.676C13.06 520.676 23.3765 510.437 23.3765 497.757V467.115H27.3149V464.752H21.0135V497.757C21.0135 500.6 20.4564 503.194 19.4382 505.634V464.752H17.0752V509.803C16.5949 510.513 16.0377 511.147 15.4998 511.781V464.752H9.19843V467.115H13.1368V513.895C10.2166 516.181 6.68172 517.679 2.8202 518.16ZM66.5257 472.782V508.304L64.9503 506.095V474.607C61.0312 479.487 58.6681 485.615 58.6681 492.32C58.6681 507.92 71.4246 520.676 87.0244 520.676C102.605 520.676 115.381 507.92 115.381 492.32C115.381 476.72 102.605 463.964 87.0244 463.964C80.8767 463.964 75.1132 465.923 70.4832 469.324V472.244C74.9595 468.536 80.723 466.327 87.0244 466.327C101.356 466.327 113.018 477.988 113.018 492.32C113.018 506.652 101.356 518.313 87.0244 518.313C80.0122 518.313 73.5379 515.47 68.9079 510.917V470.496C68.0242 471.207 67.2365 471.994 66.5257 472.782ZM61.0312 492.32C61.0312 489.246 61.5691 486.249 62.6065 483.425V501.215C61.5691 498.468 61.0312 495.471 61.0312 492.32ZM150.73 467.115V517.526H146.791V519.889H153.093V464.752H146.791V467.115H150.73ZM157.031 464.752H154.668V519.889H157.031V464.752ZM170.902 464.752H158.607V519.889H160.97V519.735H182.237C188 519.735 192.573 515.009 192.573 509.418C192.573 503.655 187.923 499.006 182.237 499.006H179.874C185.484 495.855 189.249 489.803 189.249 483.022C189.249 472.859 180.988 464.752 170.902 464.752ZM170.902 499.006H160.97V467.115H170.902C179.72 467.115 186.886 474.204 186.886 483.022C186.886 491.763 179.72 499.006 170.902 499.006ZM182.237 517.372H160.97V501.388H182.237C186.655 501.388 190.21 504.923 190.21 509.418C190.21 513.741 186.655 517.372 182.237 517.372ZM232.34 472.782V508.304L230.765 506.095V474.607C226.827 479.487 224.464 485.615 224.464 492.32C224.464 507.92 237.22 520.676 252.82 520.676C268.42 520.676 281.176 507.92 281.176 492.32C281.176 476.72 268.42 463.964 252.82 463.964C246.672 463.964 240.928 465.923 236.279 469.324V472.244C240.774 468.536 246.519 466.327 252.82 466.327C267.152 466.327 278.813 477.988 278.813 492.32C278.813 506.652 267.152 518.313 252.82 518.313C245.808 518.313 239.353 515.47 234.703 510.917V470.496C233.839 471.207 233.051 471.994 232.34 472.782ZM226.827 492.32C226.827 489.246 227.384 486.249 228.402 483.425V501.215C227.384 498.468 226.827 495.471 226.827 492.32ZM316.545 467.115V517.526H312.606V519.889H318.908V464.752H312.606V467.115H316.545ZM322.846 464.752H320.483V519.889H322.846V464.752ZM342.461 464.752H324.421V519.889H330.723V517.526H326.784V501.388H343.633L353.335 517.526H350.799V519.889H361.596V517.526H356.236L346.322 500.985C354.583 499.255 360.808 491.84 360.808 483.022C360.808 472.936 352.624 464.752 342.461 464.752ZM342.461 499.006H326.784V467.115H342.461C351.279 467.115 358.445 474.28 358.445 483.022C358.445 491.84 351.279 499.006 342.461 499.006ZM397.368 467.115V517.526H393.41V519.889H399.711V464.752H393.41V467.115H397.368ZM403.669 464.752H401.287V519.889H403.669V464.752ZM417.52 464.752H405.225V519.889H407.588V519.735H428.874C434.619 519.735 439.191 515.009 439.191 509.418C439.191 503.655 434.542 499.006 428.874 499.006H426.492C432.102 495.855 435.867 489.803 435.867 483.022C435.867 472.859 427.607 464.752 417.52 464.752ZM417.52 499.006H407.588V467.115H417.52C426.339 467.115 433.504 474.204 433.504 483.022C433.504 491.763 426.339 499.006 417.52 499.006ZM428.874 517.372H407.588V501.388H428.874C433.274 501.388 436.828 504.923 436.828 509.418C436.828 513.741 433.274 517.372 428.874 517.372ZM475.021 467.115V517.526H471.082V519.889H477.384V464.752H471.082V467.115H475.021ZM481.322 464.752H478.959V519.889H481.322V464.752ZM489.199 464.752H482.897V519.889H489.199V517.526H485.26V467.115H489.199V464.752ZM535.364 519.889H541.665V464.752H521.186V471.053H523.549V467.115H539.302V517.526H535.364V519.889ZM545.604 464.752H543.241V519.889H545.604V464.752ZM567.659 464.752H547.179V519.889H553.481V517.526H549.542V467.115H565.296V471.053H567.659V464.752Z" fill="#F2CE8E"/>
<path d="M477.162 196.484L279 0.408203L80.8384 196.484L93.5833 208.999L80.8384 221.515L279 417.591L477.162 221.515L464.417 208.999L477.162 196.484ZM86.7415 196.484L279 6.24876L471.259 196.484L461.476 206.163L279 25.6269L96.5244 206.079L86.7415 196.484ZM458.514 208.999L279 386.552L99.4864 208.999L279 31.4466L458.514 208.999ZM471.259 221.515L279 411.75L86.7415 221.515L96.5244 211.836L279 392.372L461.476 211.92L471.259 221.515Z" fill="#EECB8C"/>
<path d="M248.813 267.365V257.778H242.819V273.762C274.787 273.762 300.972 247.788 300.972 215.628V137.898H310.962V131.904H294.978V215.628C294.978 222.813 293.576 229.403 290.982 235.608V131.904H284.988V246.194C283.778 247.98 282.395 249.594 280.992 251.189V131.904H265.008V137.898H274.998V256.587C267.602 262.37 258.611 266.174 248.813 267.365Z" fill="#EECB8C"/>
</g>
<defs>
<clipPath id="clip0_11_43">
<rect width="568" height="521" fill="white"/>
</clipPath>
</defs>
</svg>
